<?xml version="1.0" standalone="no"?>
<!DOCTYPE svg PUBLIC "-//W3C//DTD SVG 20010904//EN"
 "http://www.w3.org/TR/2001/REC-SVG-20010904/DTD/svg10.dtd">
<svg version="1.0" xmlns="http://www.w3.org/2000/svg"
 width="310.000000pt" height="310.000000pt" viewBox="0 0 310.000000 310.000000"
 preserveAspectRatio="xMidYMid meet">
<metadata>
Created by potrace 1.11, written by Peter Selinger 2001-2013
</metadata>
<g transform="translate(0.000000,310.000000) scale(0.100000,-0.100000)"
fill="#000000" stroke="none">
<path d="M1972 2119 c-112 -22 -254 -126 -315 -230 -140 -242 -105 -574 80
-758 109 -108 206 -146 378 -146 101 0 130 4 185 24 161 58 272 175 332 350
30 88 32 283 4 376 -37 119 -103 227 -174 283 -57 45 -152 89 -217 101 -67 13
-210 13 -273 0z m250 -228 c120 -51 188 -202 174 -385 -11 -150 -88 -256 -213
-292 -141 -41 -276 39 -329 196 -26 77 -26 236 0 305 50 131 134 194 258 195
43 0 82 -7 110 -19z"/>
<path d="M840 2089 c-10 -18 -115 -300 -225 -604 -29 -80 -152 -411 -170 -458
-7 -16 2 -17 136 -15 l143 3 24 80 c14 44 30 83 36 87 6 4 94 8 196 8 102 0
190 -4 196 -8 7 -4 23 -43 37 -87 l25 -80 141 -3 c78 -1 141 -1 141 0 0 2 -9
28 -21 58 -11 30 -40 109 -64 175 -89 244 -113 312 -148 405 -123 337 -157
430 -157 439 0 17 -31 21 -155 21 -115 0 -125 -1 -135 -21z m178 -361 c17 -57
47 -156 66 -220 20 -64 36 -119 36 -122 0 -3 -63 -6 -140 -6 -77 0 -140 1
-140 3 0 3 6 22 53 177 19 63 43 144 52 180 9 36 19 71 21 78 9 30 23 5 52
-90z"/>
</g>
</svg>
